<?xml version="1.0" encoding="UTF-8"?>
<svg id="Layer_1" data-name="Layer 1" xmlns="http://www.w3.org/2000/svg" viewBox="0 0 306.17 841.89">
  <defs>
    <style>
      .cls-1 {
        fill: #231f20;
      }
    </style>
  </defs>
  <path class="cls-1" d="M109.58,111.07c5.65,5.2,23.3-5.61,28.23-9.9,19.89-16.2,19.34-31.3,30.75-52.51,3.17-6.05,8.48-10.85,11.83-16.65,4.95-10.57-15.31-10.2-21.28-9.06-17.7,3.12-25.04,14.16-28.03,31.66-1.02,5.13-2.2,10.22-3.93,15.16-3.15,8.8-6.24,18.01-11.14,25.77-2.15,4.02-8.99,11.02-6.51,15.43l.07.1Z"/>
  <path class="cls-1" d="M219.82,723.34c8.21,18.08,8.39,40.05,8.61,59.44-.7,14.15-.14,31.5-2.64,45.85-3.48,10.05-7.34,2.04-7.24-6.54-.81-33.49,8.35-70.95-9.18-101.39-10.61-15.75-27.63-25.11-42.72-36.02-24.85-16.68-50.67-32.78-69.96-56.37-24.98-29.32-25.12-69.02.16-98.12,14.05-16.96,34.57-24.02,32.33-50.02.09-2.14.64-5.62,1.58-6.46,6.35-2.39,4.91,16.43,7.95,19.33,5.05,3.74,13.77-5.8,18.69-8.07,7.77-4.99,15.87-9.8,23.5-15.06,23.75-15.27,38.71-45.82,28.94-74.01-6.44-21.32-23.8-36.74-40.09-50.4-27.86-22.78-59.75-41.28-78.93-73.16-17.31-27.15-25.72-60.41-24.54-92.77.07-9.7,1.88-19,4.75-28.47,1.3-4.35,3.07-9.57,6.38-12.35,8.43-4.01-3.91,29.11-3.05,33.2-2.86,24.56,2.09,49.13,10.99,71.61,10.59,25.99,27.31,51.32,51.57,65.03,9.13,1.57,8.82-25.36,10.83-31.38,3.04-10.49,17.28-6.52,19.31,2.72,2.55,8.55-6.5,11.51-11.66,15.77-11.02,10.82-.67,27.61,9.25,35.37,11.32,9.4,23.63,18.28,33.43,29.22,38.12,41.89,27.67,92.82-19.85,120.54-33.59,23.91-79.87,40.75-90.39,85.77-9.56,37.75,21.94,67.54,48.45,88.16,4.25,3.07,13.96,12.31,16.89,4.17.99-3.29.8-8.12,1.85-11.44,3-8.51,5.33,2.47,5.62,6.55.66,7.5,3.72,14.64,8.99,20.12,16.45,16.48,39.62,26.91,50.06,49.01l.1.2Z"/>
  <path class="cls-1" d="M239.05,783.91c-5.31-3.26.15-24.05.38-30.58.78-6.44,1.4-12.88,1.96-19.33,2.4-23.03.51-55.97,25.88-65.63,13.32-4.58,25.33,5.94,27.3,19.41,1.69,9.86-.52,19.95-3.69,29.31-5.92,17.02-15.2,33.02-26.7,46.56-4.61,4.94-18.66,22.44-25.05,20.31l-.09-.04Z"/>
  <path class="cls-1" d="M183.27,267.98c-8.41,3.61-21.06,3.56-20.38-8.08.52-6.74,3.55-13.27,5.97-19.53,5.46-13.02,11.41-26.45,20.73-36.92,10.59-12.31,24.34-22.5,40.28-25.96,19.1-4.49,11.67,19.62,8.27,29.92-2.33,6.77-5.28,13.39-9.14,19.41-9.97,15.44-28.69,34.06-45.51,41.09l-.21.08Z"/>
  <path class="cls-1" d="M172.69,604.59c-2.56-12.63,5.47-25.62,11.6-36.17,8.59-13.24,17.68-26.83,29.99-36.77,5.62-4.41,21.38-15.24,27.71-8.7,3.48,4.45,2.2,11.65,1.95,17.1-.93,15.69-8.45,30.08-17.93,42.21-7.83,9.67-16.69,18.65-27.27,25.14-7.97,5.13-22.47,9.86-26-2.62l-.05-.2Z"/>
  <path class="cls-1" d="M221.32,99.78c-6.71,4.75-30.82,23.15-19.24,1.86,5.52-10.77,8.96-23.3,12.79-34.94,3.96-12.23,6.57-25.56,13.7-36.7,6.29-10.48,17.48-18.39,29.91-15.76,9.58,1.62,17.35,9.33,17.75,19.45.59,28.22-34.59,50.86-54.71,65.95l-.2.15Z"/>
  <path class="cls-1" d="M115.53,407.24c7.18,24.51,2.3,51.3-23.95,24.33-8.67-9.48-16.83-20.05-21.12-32.48-2.1-5.62-4.41-11.03-5.54-16.95-1.05-5.69-1.02-10.78-.84-16.74.58-5.26-.69-17.23,3.88-20.29,6.29-2.89,15.03,6.17,19.57,10.6,6.08,6.16,10.58,13.93,14.57,21.56,5.66,9.32,10.69,19.08,13.36,29.74l.06.22Z"/>
  <path class="cls-1" d="M90.57,756.61c-12.35-12.31-22.35-27.92-26.02-45.44-4.48-21.33-2.47-29.88,18.86-17.58,12.18,6.94,22.43,17.45,31.07,28.59,7.45,11.13,12.47,23.22,14.96,36.21,1.69,7.99.14,17.75-9.23,16.51-4.61-.52-9.04-3.17-13.09-5.65-5.34-3.36-11.44-7.73-16.37-12.48l-.16-.16Z"/>
  <path class="cls-1" d="M97.37,112.1c-5.43-.45-7.8-7.97-9.42-12.89-2.21-7.59-2.2-15.79-2.2-23.41-.13-15.27,1.64-31.64,8.71-45.18,2.33-4.51,5.13-8.68,7.99-12.87,3.26-4.09,6.68-12.18,12.34-12.17,3.74.64,5.79,5.9,7.09,9.35,2.25,6.06,4.33,11.9,5.04,18.19,1.7,15.91-2.26,31.33-7.36,46.29-2.14,6.83-4.91,13.91-8.86,19.82-3.37,4.47-7.2,12.07-13.17,12.86h-.16Z"/>
  <path class="cls-1" d="M158.21,260.44c-4.71,7.03-11.12-14.86-11.63-18.23-1.73-7.93-1.46-14.44-.37-22.36.96-6.9,2.1-14.39,4.37-20.93,3.65-10.65,11.54-19.57,15.98-29.85,1.35-3.78,3-8.49,3.75-12.63.79-3.83.23-7.37,2.15-9.44,4.2-3.56,10.92,3.28,14.13,6.11,5.06,4.95,8.98,11.63,9.96,18.81,1.22,8.4-1,17.42-6.14,24.09-3.65,4.7-7.43,8.52-10.35,14.1-6.42,11.12-11.41,22.97-16.45,34.74-2.12,4.85-3.03,10.65-5.32,15.45l-.08.13Z"/>
  <path class="cls-1" d="M78.05,651.43c-18.27-2.45-37.87-5.42-50.57-20.57-3.26-3.85-6.54-8.28-7.67-13.18-2.51-10.42,3.88-21.45,14.84-22.8,8.06-1.09,17,.7,23.79,4.7,10.02,7.05,18.19,17.14,25.16,27.16,4.27,6.56,8.98,12.97,15.18,17.81,1.4,1.11,3.79,3.14,3.85,4.65.05,4.48-21.06,2.8-24.36,2.27l-.21-.03Z"/>
  <path class="cls-1" d="M223.82,618.94c-8.97,2.7-19.22,3.62-28.34,2.01-2.36-.53-8.54-1.54-7.79-4.51.67-1.38,1.79-2.02,3.21-2.98,3.28-1.99,8.45-4.36,12.31-7.02,7.41-4.93,14.21-10.41,20.39-16.85,7.48-7.57,11.97-18.09,20.14-25.19,6.72-5.87,15.85-9.79,24.76-8.12,8.4,1.46,14.98,6.54,21.31,12.36,4.89,5.01,10.72,10,.28,11.65-13.15,1.7-22.37,12.46-32,20.5-9.81,7.65-22.18,14.38-34.05,18.08l-.22.07Z"/>
  <path class="cls-1" d="M183.02,278.19c-17.07-3.46,3.36-7.29,8.14-10.67,3.26-1.78,6.13-3.91,8.95-6.31,6.78-6.11,14.41-10.71,20.29-17.64,6.48-7.93,10.66-16.04,19.34-21.53,11-6.98,26.1-6.73,36.19,1.94,3.63,3,13.08,11.41,7.11,15.64-1.7,1.05-4.26,1.47-6.32,1.96-3.3.72-6.55,2.07-9.62,3.8-10.88,5.69-18.75,15.29-28.67,21.76-16.37,10.18-36.27,15.37-55.19,11.09l-.22-.05Z"/>
  <path class="cls-1" d="M199.43,128.9c-6.58-4.66,6.95-8.19,10.24-9.87,8.63-3.41,16.71-8.03,24.78-12.62,10.95-6,21.79-13.09,34.17-15.43,9.12-1.77,20.11.68,25.17,9.11,7.95,13.59-5.77,27.57-18.02,31.66-18.75,7.31-58.48,6.51-76.23-2.78l-.12-.08Z"/>
  <path class="cls-1" d="M167.92,598.54c-.57,2.39-1.84,7.67-4.71,5.44-8.72-9.95-9.05-31.09-6.31-43.63,1.63-8.07,4.58-15.74,8.29-22.92,4.27-8.19,9.45-15.35,13.47-23.66,3.39-6.36,4.48-13.63,6.14-20.54,3.28-10.84,14.86,4.01,18,8.66,4.12,6.23,5.85,13.94,4.72,21.39-1.5,12.51-10.51,21.72-17.61,31.25-9.28,13.18-18.73,27.65-21.94,43.82l-.05.2Z"/>
  <path class="cls-1" d="M91.98,784.36c-11.06-1.77-21.64-5.45-31.19-11.58-10.98-7.2-21.09-16.2-34.44-18.63-3.91-1.2-12.7-1.69-11.98-7.01,1.9-6.38,11.39-13.03,17.59-16.58,10.48-6.22,24.33-6.9,33.71,1.66,4.68,3.96,8.14,8.79,11.95,13.46,4.12,5.02,8.87,9.82,14.07,14.53,6.28,5.52,12.62,9.84,19.86,13.38,2.73,1.43,8.05,3.85,8.31,6.66-.98,6.65-22.08,5.45-27.66,4.15l-.23-.04Z"/>
  <path class="cls-1" d="M249.78,414.72c-2.74,1.97-11.81,8.34-14.56,6.21-1.54-1.19.5-3.46.88-4.67,1.43-4.56,3-9.04,4-13.81,2.12-10.15,3.95-20.15,5.26-30.56l.81-6.41c1.19-9.44,5.76-22.3,15.02-25.99,6.11-2.43,11.93-1.01,17.04,1.7,4.79,2.54,7.34,6.14,8.98,11.17,1.77,5.4,2.16,10.73.04,16.44l-3.14,8.49c-1.48,3.98-3.66,7.73-6.04,11.18-2.22,3.21-5.26,5.78-7.71,8.85-3.86,4.84-8.61,8.46-13.39,12.35-2.26,1.84-4.81,3.34-7.2,5.06Z"/>
  <path class="cls-1" d="M87.54,107.55c-2.35,2.28-7.91-1.7-10.31-3.29-12.72-9.57-20.93-24.64-25.1-39.94-4.81-15.9-.15-33.5-8.73-48.33-.83-1.86-3.43-4.72-1.37-6.37,3.69-2.05,12.4-.98,17.14.57,8.05,2.4,15.43,4.98,20.61,12.32,7.75,8.89,6.87,18.29,4.69,29.19-1.41,8.09-2.33,16.64-2.2,24.81.54,6.95.68,13.63,2.71,20.37.79,3.44,3.77,7.97,2.62,10.59l-.06.09Z"/>
  <path class="cls-1" d="M230.52,475.73c-4.49,0-19.2-2.02-23.29-5.34,1.96-2.16,3.9-2.8,6.3-3.85l3.24-3.3c2.92-2.97,6.97-4.93,9.6-7.97l5.71-6.62,5.49-5.62c4.66-4.77,9.47-11.41,13.67-13.99,2.91-1.79,5.4-4.53,8.63-5.8,7.59-2.99,14.47-2.53,21.54,1.09,12.16,6.24,7.22,27.27-2.48,35.24-7.28,5.97-15.73,10.5-24.63,13.21-7.87,2.4-15.62,2.95-23.79,2.96Z"/>
  <path class="cls-1" d="M76.32,443.63c-15.23-4.74-26.55-16.58-36.95-28.31-4.77-5.34-9.16-11.53-14.97-16.09-2.2-1.79-4.89-3.39-6.95-5.21-1.66-1.45-2.86-2.4-4.67-3.32-1.33-.77-3.4-1.56-2.58-3.47.72-1.73,3.97-3.54,6.78-5.08,3.97-2.11,8.22-4.13,12.35-5.61,5.63-2,12.32-2.09,17.9.28,5.42,2.14,10.67,4.47,14.03,9.85,4.63,6.47,5.8,14.18,9.44,21.21,2.42,4.47,5,8.88,8.08,12.73,6.42,7.16,13.71,13.91,21.18,19.92,3.59,2.66,7.19,5.58,1.11,6.06-8.33.53-16.76-.02-24.53-2.88l-.22-.08Z"/>
  <path class="cls-1" d="M103.34,304.29c1.28.96,2,2.03,2.02,3.87-6.73-.46-12.65-1.33-19.05-2.65-5.2.27-25.34-3.98-29.25-5.52l-10.13-4.01c-12.78-5.06-30.49-22.61-20.62-38.66,4.36-7.09,12.83-9.1,20.27-6.91,12.6,1.49,17.29,8.82,24.18,18.18,4.81,6.54,3.33,5.66,9.78,13.48l9.17,11.1c1.16,1.4,3.21,3.32,4.5,4.28l9.13,6.84Z"/>
  <path class="cls-1" d="M66.46,582.66c-6.17.14-12.38-3.98-17.76-7.07-16.17-10.63-32.35-28.28-31.37-49.17.59-8.73,6.44-16.87,14.75-19.15,10.58-3.15,20.9,4.21,25.66,13.98,6.81,13.4,6.79,28.98,10.36,43.43,1.21,6.54,5.06,16.67-1.5,17.96l-.13.02Z"/>
  <path class="cls-1" d="M67.73,236.82c-5.1.08-11.55-2.71-15.24-4.59l-8.07-4.1-2.51-1.91c-3.75-2.85-8-5.39-11.42-8.66-4.55-4.34-7.34-9.13-10.09-14.8-3.69-7.61-5.89-15.25-4.96-24.15.61-5.89,4.52-12.94,10.92-14.32,4.65-1,10.5.52,14.63,2.68,12.8,6.69,12.59,17.93,14.92,30.34l2.43,12.95c1.15,6.15,4.07,12.26,6.01,18.35l3.4,8.21Z"/>
  <path class="cls-1" d="M143.81,750.06c-.81,4.04-4.53,18.65-8.44,16.74-3-3.2-3.06-10.06-4.5-14.42-2.41-9.14-5.55-17.54-10.33-25.33-10.01-17.09-28.38-31.17-15.91-52.51,3.45-5.73,7.87-11.38,12.44-10.62,5.65,2.01,7.18,10.32,9.8,15.32,11.44,24.52,22.41,41.99,16.99,70.59l-.05.23Z"/>
  <path class="cls-1" d="M123.34,435.58c-.75-.17-.95-2.64-.95-3.87,0-3.69.03-7.55-.43-11.29-1.42-9.35-4.5-18.91-7.77-27.62-2.25-5.54-5.32-11.46-8.06-16.31-2.71-4.77-5.23-9.81-5.78-15.44-1.16-11.09,6.48-21.26,16.01-26.07,5.86-2.72,14.06-5.96,12.71,4.44-2.86,17.31,5.83,33.83,7.5,50.58,1.61,14.16-.02,29.12-8.38,41.1-1.06,1.6-3.45,4.78-4.77,4.51l-.07-.02Z"/>
  <path class="cls-1" d="M144.67,427.19c-2.49,1.39-12.08,8.09-13.85,5.62-.46-.82,1.03-3.16,1.84-4.41,1.44-2.27,1.97-4.09,2.87-6.76,3.15-8.06,3.78-16.8,3.86-25.38.02-8.87-2.4-18.93,2.9-26.78,6-8.77,14.63-11.94,24.83-11.08,3.12.32,12.69.2,11.01,4.91-1.02,2.53-3.88,4.6-4.93,7.13-1.55,4.17-1.56,9.31-2.28,13.84-.55,5-1.93,9.95-3.48,14.38-3.51,12.1-12.21,21.58-22.58,28.39l-.2.13Z"/>
  <path class="cls-1" d="M146.26,763.34c-5.25,1.04-.61-9.11-.1-11.8,4.55-13.84.04-28.68,2.83-43.01,1.95-8.2,7.85-16.97,16.86-16.88,7.48-.25,14.58,5.58,14.96,13.44.67,13.6-7.83,30.98-15.69,41.91-3.79,4.82-9.13,9.89-13.92,13.86-1.34,1.22-3.59,2.33-4.83,2.47l-.11.02Z"/>
  <path class="cls-1" d="M163.81,109.68c-7.4,2.75-14.79,4.01-22.58,4.52-16.11,1.42-17-.24-3.82-8.78,6.14-4.09,10.09-9.57,14.46-15.53,6.81-8.98,14.55-19.43,25.99-22.15,20.53-3.94,27.02,13.57,12.49,27.56-7.34,6.94-16.85,10.8-26.32,14.31l-.22.08Z"/>
  <path class="cls-1" d="M139.83,236.18c-3.22,1.34-9.1-5.95-12.08-8.7-4.92-4.94-10.26-9.48-15.04-14.71-36.94-43.05,38.98-54.45,32.08,1.41-.87,5.12-.66,19.72-4.87,21.97l-.09.04Z"/>
  <path class="cls-1" d="M213.88,295.36c-2.49-1.05-5.03-2.13-7.5-3.25-5.43-2.68-12.36-5.6-5.24-8.02,6.33-1.79,13.78-1.81,20.07-4.17,7.17-2.18,13.67-7.27,20.59-9.2,8.74-2.24,19.74-1.18,26.03,6,8.51,10.38,1.47,21.94-10.22,25.12-14.65,4.35-29.87-.9-43.51-6.38l-.22-.09Z"/>
  <path class="cls-1" d="M217.09,634.25c-4.04-1.62-21.43-7.37-9.26-9.29,4.24-.6,8.74-.9,12.99-2.09,6.93-1.78,13.76-4.52,20.36-7.29,7.15-3.01,13.86-5.95,21.29-5.74,21.45.39,27.85,22.61,5.63,29.81-6.41,1.97-13.26,2.33-19.84,2.04-10.59-.63-20.98-3.92-30.96-7.37l-.22-.08Z"/>
  <path class="cls-1" d="M69.07,812.46c-5.06,4-11.59,6.47-17.95,5.47-6.9-1.1-13.15-7.26-13.53-14.68-.48-9.91,8.87-19.06,18.46-20.36,11.59-1.77,22.16,2.33,33.63,4.2,16.73,3.03,26.75,1.43,3,10.5-8.89,3.49-16.19,8.8-23.44,14.74l-.17.13Z"/>
  <path class="cls-1" d="M63.76,129.06c-3.17,4.81-7.42,8.89-13.14,9.89-5.62.89-11.73.23-16.92-2.02-5.16-2.31-9.21-8.29-10.17-13.88-.28-3.27.24-4.45.44-6.99,1.24-6.71,8.61-9.63,14.53-10.61,10.28-1.56,21.24-.18,31.05,2.94,3.92,1.32,8.31,1.69,10.69,3.72,1.05,1.98-3.08,4.31-4.27,5.67-4.45,4.14-8.55,6.54-12.07,11.1l-.14.18Z"/>
  <path class="cls-1" d="M50.44,463.55c-9.68,4.89-23.37,7.63-30.26-3.2-5.84-8.12-2.04-19.5,5.91-24.39,6.43-4.04,14.88-4.03,21.9-1.53,8.74,3.29,15.16,8.54,23.55,11.72,1.54,1.05,13.76,3.47,10.44,6.02-5.64,3.15-12.65,3.95-18.7,5.98-4.52,1.38-8.46,3.29-12.63,5.3l-.21.1Z"/>
  <path class="cls-1" d="M146.52,576.55c-3.9-4.68-7.81-9.19-12.52-13.06-4.39-3.76-9.02-7.46-12.57-11.93-4.39-5.48-7.77-13.11-5.09-20.06,3.61-9.11,14.73-11.49,22.93-7.03,20.82,10.39,14.43,29.51,13.21,48.61-.39,4.08-.83,9.25-5.82,3.62l-.14-.15Z"/>
  <path class="cls-1" d="M154.68,596.02c-1.36,1.57-9.02-.11-14.19-.83-6.07-.97-12.33-.72-18.36-1.13-5.28-.36-10.44-1.31-14.83-3.67-8.45-4.15-13.63-15.88-7.99-24.26,3.26-5.05,9.43-7.38,15.24-7.2,13.61.39,25.01,10.28,33.19,21.22,2.34,3.48,9.8,12.73,7.01,15.83l-.07.05Z"/>
  <path class="cls-1" d="M60.36,102.57c-13.57-1.71-28.41-2.18-39.5-11.6-9.24-6.91-11.77-21.76.78-26.39,26-6.73,32.3,15.49,45.04,32.65,5.15,6.87.14,6.19-6.09,5.37l-.24-.03Z"/>
  <path class="cls-1" d="M227.97,307.72c5.97,6.87,2.3,16.03-5.3,19.4-8.08,3.98-18.07,2.14-24.58-3.99-4.62-4.23-7.14-10.32-9.49-16.42-1.86-5.7-6.59-14.33-7.27-18.55-.86-7.87,14.8,1.53,17.98,2.75,9.57,5.19,21.06,8.5,28.52,16.63l.14.18Z"/>
  <path class="cls-1" d="M135.81,141.92c-5.08-3.28-10.93-8.07-16.14-11.95-7.57-5.27-10.58-9.97.45-10.83,7.24-.43,14.49-.53,21.76-.72,6.94-.24,13.88.15,20.4,2.55,12.96,3.88,10.9,17.9-.45,22.76-7.64,3.93-18.79,3.41-25.9-1.73l-.12-.08Z"/>
  <path class="cls-1" d="M69.06,493.93c-11.24,5.01-25.83-7.87-20.75-19.97,5.92-12.99,31.8-20.63,44.89-20.85,4,.4,2.06,4.27.33,6.86-1.98,2.99-4.05,5.97-5.87,9.23-5.27,8.48-8.72,20.97-18.4,24.66l-.2.08Z"/>
  <path class="cls-1" d="M157.4,771.11c-3.1-.08-13.97.88-9.11-4.48,3.25-3.54,11.49-9.93,15.68-14.85,8.71-9.19,23.16-29.39,35.5-16.38,5.06,6.94,2.16,16.68-3.44,22.65-3.95,4.33-9.45,7.52-15.29,9.52-7.48,2.63-15.58,3.21-23.11,3.53h-.23Z"/>
  <path class="cls-1" d="M238.66,662.48c-9.28,10.9-26.53,6-34.27-4.56-5.14-6.81-7.07-15.19-11.59-22.62-1.33-2.3-3.09-4.77-4.22-7.06-3.05-6.42,6.13-1.54,8.98-.27,3.52,1.68,7.03,3.35,10.61,4.91,3.12,1.37,6.3,2.66,9.48,3.87,7.19,2.82,15.23,4.95,19.94,11.38,3.05,3.98,4.26,9.94,1.19,14.18l-.12.17Z"/>
  <path class="cls-1" d="M169.65,436.76c-9.19,2.46-23.26,3.49-31.85,2.21-6.95-1.42,5.99-7.48,7.71-9.09,4.74-3.22,9.08-6.83,13.06-11.02,4.59-4.78,9.06-10.2,14.81-13.66,7.27-4.22,16.44-5.57,19.88,2.22,4.25,14.55-11,26.05-23.37,29.28l-.24.07Z"/>
  <path class="cls-1" d="M141.71,246.97c-.26.81-1.29,1.12-2.88,1.05-1.7-.09-3.62-.36-5.41-.53-4.1-.41-8.39-.58-12.49-.51-7.45.1-15.36,1.34-23.49-3.88-4.96-3.21-11.27-9.73-9.7-16.08,1.84-4.79,7.82-7.76,13.3-8.42,4.55-.6,9.15.98,13.11,2.93,8.88,3.74,18.46,11.03,24.4,18.96,1.31,1.7,3.45,4.36,3.19,6.39l-.03.09Z"/>
  <path class="cls-1" d="M146.57,619.05c-8.96,5.77-19,6.33-27.69.06-3.92-2.54-7.68-7.76-6.68-12.59,1.69-6.17,8.71-8.74,14.24-10.29,9.12-2.07,18.89.41,27.19,4.24,2.23,1.07,4.4,2.37,6.33,3.86,1.24.96,2.79,2.43,2.84,3.84-.34,3.1-4.07,3.42-7.37,5.41-3.04,1.53-5.76,3.45-8.66,5.34l-.21.13Z"/>
  <path class="cls-1" d="M130.3,275.62c-7.95,2.44-16.96.14-22.91-5.81-3.37-3.25-5.8-8.05-3.31-12.37,5.35-8.92,21.22-7.01,30.28-6.15,5.26.88,10.24,3.15,14.35,6.65,2.66,2.33,4.81,4.84,4.25,6.86-1.63,3.86-7.09,4.53-11.59,6.57-3.8,1.45-7.22,3.15-10.86,4.18l-.22.06Z"/>
  <path class="cls-1" d="M99.75,829.12c-17.37,21.14-44.89-9.19-7.73-29.6,4.43-2.28,9.32-4.93,14.31-4.41,6.42.95,2.03,12.02.72,17.15-1.74,5.75-3.62,11.83-7.17,16.66l-.14.19Z"/>
  <path class="cls-1" d="M179.66,455.87c-7.97,15.16-26.95,12.17-38.15,2.16-3.62-3.24-7.8-6.69-10.43-10.62-3.6-6.65,9.69-5.01,13.19-5.33,8.2.21,16.8-.5,25.01.47,6.83.66,14.1,5.18,10.47,13.11l-.09.2Z"/>
  <path class="cls-1" d="M132.54,825.51c-4.29,13.25-19.06,13.84-22.94.14-3.11-9.47.68-29.35,7.93-35.36,4.89-2.92,8.98,4.88,11.04,9.33,3.35,7.9,6.79,17.31,4.04,25.67l-.07.23Z"/>
  <path class="cls-1" d="M88.38,501.3c-11.18-10.27-.58-29.23,6.13-39.29,1.86-2.48,6.92-10.74,9.28-5.33,1.74,4.26,1.94,11.25,2.81,16.18,1.08,6.9,2.56,14.57.79,20.51-1.79,8.19-11.98,13.42-18.84,8.05l-.16-.13Z"/>
  <path class="cls-1" d="M136.37,157.94c-1.89,4.35-7.21,5.52-11.45,5.99-8.58,1.12-14.89-6.96-17.89-14.49-2-4.54-1.96-10.16-1.72-15.18.3-5.16,1.43-11.97,7.63-6.9,4.87,3.63,9.14,7.72,13.76,11.73,4.12,3.58,7.01,6.46,9.04,11.37.93,2.24,1.63,4.95.71,7.28l-.08.2Z"/>
  <path class="cls-1" d="M178.59,797.09c-8.89,1.66-18.19-3.41-24.61-9.35-2.65-2.85-10.17-9.76-8.12-12.25,1.35-1.37,2.99-1.5,5.07-1.84,2.63-.31,5.97-.37,8.89-.59,8.88-.74,20.13-1.93,26.75,5.16,6.92,7.34,1.2,17.47-7.77,18.83l-.23.04Z"/>
  <path class="cls-1" d="M192.09,674.19c-8.34.93-14.41-7.72-15.14-15.55-1.03-9.57,2.43-19.47,5.37-28.44,3.41-7.89,9.6,5.08,11.48,9.15,3.67,8.51,12,32.33-1.53,34.82l-.19.03Z"/>
  <path class="cls-1" d="M184.33,328.58c-3.88,1.36-8.46-1.23-11.39-4.07-4.18-4.05-5.57-9.78-4.45-15.55,1.04-5.97,4.36-11.04,5.56-16.64.58-2.28.3-4.87.45-7.15.08-.76.28-1.24.63-1.38,3.13.15,4.94,7.61,6.23,10.38,2.93,7.81,13.8,28.65,3.16,34.35l-.17.07Z"/>
  <path class="cls-1" d="M102.59,122.77c1.44,3.68-.86,8.44-3.76,11.08-6.37,6.42-18.56,4.89-21.05-4.47-2.21-7.06,3.69-14.03,10.72-13.85,5.04-.13,12.17,2.08,14.02,7.07l.07.19Z"/>
  <path class="cls-1" d="M168.45,637.56c-7.7-.13-15.48-8.85-11.61-16.36,4.48-9.14,16.18-9.21,21.74-1.06,4.82,7.41-.67,18.45-9.89,17.43h-.25Z"/>
  <path class="cls-1" d="M123.01,467.1c-5.18,1.44-11.41-.69-13.89-5.73-5.35-11.7,10.58-21.8,19.51-13.16,6.53,6.02,2.73,16.86-5.41,18.83l-.21.06Z"/>
  <path class="cls-1" d="M140.96,793.83c-2.64,2.36-6.33,4.47-9.7,2.12-3.93-2.73-6.54-8.97-4.84-13.69,1.25-3.47,5.77-4.86,8.66-4.9,4.35-.06,7.55,2.02,9.14,5.39,1.97,4.18.05,8.13-3.25,11.09Z"/>
</svg>