<?xml version="1.0" encoding="UTF-8"?>
<svg id="Layer_1" data-name="Layer 1" xmlns="http://www.w3.org/2000/svg" viewBox="0 0 600.74 399.31">
  <path d="M111.29,272.21c6.05,7.78,17.08,9.04,22.2.1,2.82-4.43,4.25-10.31,6.01-15.86,2.16-6.91,4.93-13.76,9.59-19.36,13.07-14.89,22.59-6.68,22.2,10.84-1.25,27-8.6,57.01-23.4,79.97-13.44,20.93-31.46,20.21-48.85,4.01-47.41-45.04-47.78-169.88-34.3-230.97,17.34-61.73,51.44-55.47,73.54-.77,4.77,9.85,7.4,32.03,17.42,36.54,1.97.82,4.17.7,6.05-.31,8.09-4.78,8.27-17.57,7.19-26.22-5.92-39-36.07-94.34-80.68-84.77-18.89,4.55-34.07,19.01-43.94,35.23-10.76,17.75-14.76,38.46-17.71,58.74-8.11,71.32-10.94,153.92,27.77,215.74,15.86,25.09,41.51,47.9,73.25,41.83,49.17-10.95,70.01-66.84,72.7-112.7,1.18-16.99,1.91-35.16-6.77-50.23-22.48-36.8-62.21-9.72-78.71,18.1-7.21,11.63-13.23,28.01-3.68,39.96l.12.15Z"/>
  <path d="M268.35,115.44c9.22,14.39,13.61,31.06,15.12,48.27,1.87,24.55-2.86,53.66-20.66,68.96-9.96,8.14-22.02,8.25-32.36.94-24.08-18.33-31.01-55.76-27.38-86.31,2.11-15.6,7.39-32.25,18.88-43.04,15.89-14.93,35.2-6.49,46.3,11.02l.11.17ZM227.58,175.66c1.87,12.81,4.99,26.4,13.29,34.31,4.07,3.45,8.18,2.76,11.37-1.29,7.64-11.48,8.22-26.93,6.87-44.56-.93-8.8-2.84-17.93-6.24-25.97-3.79-9.6-13.12-20.95-20.53-7.27-2.18,4.04-3.85,9.88-4.78,16.69-1.17,8.45-1.19,18.37,0,27.81l.03.27Z"/>
  <path d="M317.79,82.01c7.65-7.5,18.1-4.55,20.4,6.12,1.52,6.3.61,13.33-.17,20.11-1.07,8.76-2.14,17.77-2.95,26.7-2.81,35.75-5.29,67.69-2.82,102.81.86,13.63,2.1,27.73,4.14,41.31,2.61,14.84,3.86,23.06,9.57,32.54,4.91,7.54,13.05,7.24,19.18.73,5.27-5.06,8.75-13.06,12.53-19.58,3.5-5.62,6.48-10.09,11.97-12.03,5.41-1.86,10.74,4.27,11.74,10.95,1.12,5.87-.4,13.26-2.92,20.24-17.03,46.9-68.11,46.78-85.79.4-11.67-30.39-12.73-63.22-13.72-99.41-.66-32.15,2.26-65.38,7.6-96.71,2.39-11.46,2.6-25.16,11.02-33.97l.21-.2Z"/>
  <path d="M476.61,79.04c14.11,24.51,8.9,56.68-14.98,73.09-15.3,11.29-38.33,3.97-39.64,28.76-.97,29.07,14.14,70.25,33.94,92.01,4.74,4.9,8.01,7.04,12.91,9.6,6.77,3.42,14.6,7.58,17.13,15.26,2.41,6.81-2.23,14.15-9.12,15.72-17.36,3.48-39.95-19.24-49.2-33.55-13.83-22.11-22.5-45.31-28.38-70.39-9.01-44.48-14.14-98.24,13.45-133.24,9.09-10.43,24.52-15.51,38.38-12.95,10.24,1.82,20.69,7.29,25.42,15.57l.09.14ZM446.34,85.85c-17.52,1.03-26.35,24.81-25.24,40.48.38,9.35,6.95,18.29,16.67,16.39,10.24-2.22,16.7-11.72,20.16-21.18,4.6-11.67,4.8-34.32-11.26-35.69h-.33Z"/>
  <path d="M567.88,120.23c7.93,16.18,9.89,33.84,8.49,53.22-2.2,24.44-11.51,52.13-31.85,63.36-15,7.9-29.65.19-37.99-13.66-16.2-26.77-15.12-64.36-3.65-92.31,12.8-31.91,45.22-47.66,64.91-10.79l.09.18ZM519.78,177.56c-.21,8.02.57,15.44,2.2,21.01,2.25,8.65,8.52,15.65,15.7,8.1,11.71-13.97,14.25-38.9,12.87-56.57-.7-11.26-7.65-31.2-19.67-15.29-7.48,10.98-10.63,28.32-11.09,42.48v.27Z"/>
</svg>