<?xml version="1.0" encoding="UTF-8"?><svg id="Layer_1" xmlns="http://www.w3.org/2000/svg" viewBox="0 0 600.74 399.31"><path d="M105.61,272.43c5.98,9.93,21.6,14.67,27.98,10.01,5.38-3.92.25-11.65,4.71-29.45.96-3.83,5.44-20.4,19.44-30.63,6.24-4.56,8.79-3.77,9.42-3.53,6.37,2.4,5.36,19.22,5.01,25.03-.51,8.38-.46,15.06-6.94,41.27-.83,3.35-1.9,14.04-13.25,36.81-7.24,14.53-18.86,23.76-22.51,24.99-13.41,4.54-31.43-16.3-35.93-21.5-14.04-16.23-24.09-37.26-30.92-76.27-12.5-71.38-.49-137.76,2.49-149.16,5.55-21.23,16.2-44.49,34.03-45.78,11.91-.86,22.46,15.48,30.33,27.68,12.99,20.13,16.4,43.25,18.76,56.43.07.41.7,4.78,1.25,6.04,2.49,5.68,15.02,6.01,19.14-1.69,1.68-3.14,5.16-8.76,3.83-15.38-3.2-15.98-4.1-23.56-7.29-34.59-4.21-14.54-12.26-26.43-18.99-37.55-8.8-14.52-30.5-33.18-49.13-30.84-27.73,3.49-51.36,27.01-60.64,53.51-3.59,10.25-11.45,42.01-12.96,73.03-1.36,28.02-1.18,53.86-.88,67.42,1.18,54.55,18.01,90.75,25.91,105.44,13.16,24.47,33.64,47.14,56.68,52.57,21.53,5.07,36.23-4.46,44.03-9.16,21.44-12.9,33.41-33.26,41.08-53.45,8.39-22.09,10.16-44.91,11.19-77.45.18-5.7-4.8-38.24-25.75-43.92-12.7-3.44-24.45,3.64-32.1,8.25-27.47,16.55-49.06,53.45-37.99,71.85Z"/><path d="M272.93,121.28c13.04,28.26,10.05,46.29,9.98,60.35-.03,4.88-5.33,53.08-34.01,58.67-15.8,3.08-22.05-9.95-25.94-15.17-16.05-21.5-18.85-44.83-20.11-53.07-3.39-22.11-2.09-50.73,20.92-69.43,3.53-2.87,16.96-6.7,28.17-2.3s20.33,19.51,20.99,20.94ZM227.37,176.04c.76,8.54,11.73,36.87,18.85,36.81,8.08-.07,16.45-31.62,12.92-53.7-2.46-15.44-12.01-34.83-19.26-33.91-8.62,1.09-14.72,26.06-12.52,50.8Z"/><path d="M314.04,85.07c1.08-2.08,3.83-6.68,7.76-6.95,6.64-.46,19.29,1.22,19.36,5.54.14,10.02-1.44,17.7-4.04,33.81-3.46,21.5-6.11,87.31-6.04,90.16,1.63,66.75,7.61,101.43,19.29,108.37,11.68,6.95,23.76-7.59,30.06-40.49,1.36-7.08,23.04-1.33,22.29,4.62-2.06,16.3-.76,25.91-12.78,46.93-4.39,7.67-23.81,21.34-37.39,20.19-28.47-2.43-35.52-28.93-40.37-39.61-12.89-28.38-13.61-102.4-11.21-136.53,2.47-35.07,9.22-66.13,13.07-86.04Z"/><path d="M474.87,78.76c2.82,3.35,7.95,19.18,8.19,25.69.1,2.76,1.26,6.64-.92,15.75-1.36,5.65-4.83,20.13-15.07,30.08-7.37,7.15-14.9,8.72-21.57,9.82s-10.21,1.17-18.92,2.75c-3.08.56-4.23,5.69-4.32,19.11-.05,7.5-.36,18.46,5.09,35.45,18.51,57.76,35.03,60.73,41.44,64.37,8.2,4.66,16.96,5.67,19.09,12.89,1.91,6.48-2.19,15.72-8.46,18.55-14.13,6.36-43.79-17.27-54.4-38.61-13.79-27.73-22.06-49.11-26.98-80.06-6.59-41.47-7.2-85.33,13.56-114.81,4.97-7.07,11.12-15.17,29.81-16.57,22.67-1.7,31.04,13.26,33.48,15.57ZM445.97,86.37c-5.77.22-11.2,3.4-15.98,10.61-3.12,4.71-9.56,14.43-9.01,27.3.21,5.01.63,14.78,7.02,18.09,7.61,3.95,18.09-4.09,19.37-5.44,9.2-9.69,11.14-16.19,12.73-26.02,1.21-7.47.56-15.66-3.3-20.12-3.19-3.69-6.13-4.6-10.83-4.42Z"/><path d="M571.72,128.69c8.56,29.92,3.01,43.29.79,57.17-.77,4.82-10.82,53.23-40.01,54.36-16.09.63-25.92-12.38-29.18-20.08-10.16-23.97-10.01-38.12-8.94-48.99,2.17-22.26,12.45-59.53,37.51-71.16,4.09-1.9,12.43-1.48,22.83,4.58,9.87,5.75,16.58,22.59,17.01,24.11ZM519.99,176.28c.18,14.9,3.04,32.69,10.08,33.72,8,1.17,21.23-26.19,21.13-48.55-.07-15.63-3.48-32.16-10.78-32.36-8.68-.24-20.71,23.66-20.43,47.19Z"/></svg>