<svg width="147" height="56" viewBox="0 0 147 56" fill="none" xmlns="http://www.w3.org/2000/svg">
<g filter="url(#filter0_d_525_34)">
<path d="M142.423 45.5449L4.33223 45.5449L7.94703 7.42213L133.146 4.80934L142.423 45.5449Z" fill="#F0CA57"/>
</g>
<g filter="url(#filter1_d_525_34)">
<path d="M8.92707 27.5948L28.7499 39.4434L29.0997 16.3521L8.92707 27.5948ZM48.9225 28.2007L48.9528 26.2009L26.9553 25.8677L26.925 27.8675L26.8947 29.8672L48.8922 30.2005L48.9225 28.2007Z" fill="white"/>
</g>
<g filter="url(#filter2_d_525_34)">
<path d="M57.5175 34.9012L56.8994 27.2098L57.2428 13.2004L64.5908 13.2004L63.9728 21.7846L65.8956 19.7931L73.6901 21.6129L75.3726 26.6261L71.7329 37.3735L64.5908 37.0301L64.5908 38.5409L57.2428 38.5409L57.5175 34.9012ZM76.4509 26.6261L78.8202 21.3039L86.8893 19.4154L93.8253 19.4154L93.482 24.6689L93.8253 31.5362L93.482 37.9572L86.8893 37.9572L86.6833 34.0428L81.0521 38.1976L78.8545 36.9271L76.1419 29.5104L76.4509 26.6261ZM96.0105 28.2056L98.5515 22.7804L109.78 19.7931L111.84 25.0809L109.642 29.0296L103.805 26.5574L103.839 32.2916L107.445 29.373L111.599 29.8194L108.887 37.4078L107.685 38.4379L96.5599 35.2446L96.0105 28.2056ZM113.064 31.9483L114.266 25.3213L113.064 18.1106L113.064 13.7498L120.618 13.4408L120.24 19.1407L120.069 25.1153L123.777 19.381L131.503 19.381L128.55 25.2526L124.464 27.9309L130.232 33.5964L132.567 37.9229L124.67 37.9229L120 34.5922L120 37.9229L113.064 37.9229L113.064 31.9483Z" fill="white"/>
</g>
<defs>
<filter id="filter0_d_525_34" x="3.09944e-05" y="4.80934" width="146.755" height="49.4001" filterUnits="userSpaceOnUse" color-interpolation-filters="sRGB">
<feFlood flood-opacity="0" result="BackgroundImageFix"/>
<feColorMatrix in="SourceAlpha" type="matrix" values="0 0 0 0 0 0 0 0 0 0 0 0 0 0 0 0 0 0 127 0" result="hardAlpha"/>
<feOffset dy="4.33224"/>
<feGaussianBlur stdDeviation="2.16612"/>
<feComposite in2="hardAlpha" operator="out"/>
<feColorMatrix type="matrix" values="0 0 0 0 0 0 0 0 0 0 0 0 0 0 0 0 0 0 0.25 0"/>
<feBlend mode="normal" in2="BackgroundImageFix" result="effect1_dropShadow_525_34"/>
<feBlend mode="normal" in="SourceGraphic" in2="effect1_dropShadow_525_34" result="shape"/>
</filter>
<filter id="filter1_d_525_34" x="4.92712" y="16.3521" width="48.0256" height="31.0913" filterUnits="userSpaceOnUse" color-interpolation-filters="sRGB">
<feFlood flood-opacity="0" result="BackgroundImageFix"/>
<feColorMatrix in="SourceAlpha" type="matrix" values="0 0 0 0 0 0 0 0 0 0 0 0 0 0 0 0 0 0 127 0" result="hardAlpha"/>
<feOffset dy="4"/>
<feGaussianBlur stdDeviation="2"/>
<feComposite in2="hardAlpha" operator="out"/>
<feColorMatrix type="matrix" values="0 0 0 0 0 0 0 0 0 0 0 0 0 0 0 0 0 0 0.25 0"/>
<feBlend mode="normal" in2="BackgroundImageFix" result="effect1_dropShadow_525_34"/>
<feBlend mode="normal" in="SourceGraphic" in2="effect1_dropShadow_525_34" result="shape"/>
</filter>
<filter id="filter2_d_525_34" x="53.4657" y="13.2005" width="82.5353" height="32.2079" filterUnits="userSpaceOnUse" color-interpolation-filters="sRGB">
<feFlood flood-opacity="0" result="BackgroundImageFix"/>
<feColorMatrix in="SourceAlpha" type="matrix" values="0 0 0 0 0 0 0 0 0 0 0 0 0 0 0 0 0 0 127 0" result="hardAlpha"/>
<feOffset dy="3.43367"/>
<feGaussianBlur stdDeviation="1.71684"/>
<feComposite in2="hardAlpha" operator="out"/>
<feColorMatrix type="matrix" values="0 0 0 0 0 0 0 0 0 0 0 0 0 0 0 0 0 0 0.25 0"/>
<feBlend mode="normal" in2="BackgroundImageFix" result="effect1_dropShadow_525_34"/>
<feBlend mode="normal" in="SourceGraphic" in2="effect1_dropShadow_525_34" result="shape"/>
</filter>
</defs>
</svg>
