<svg width="54" height="58" viewBox="0 0 54 58" fill="none" xmlns="http://www.w3.org/2000/svg">
<g filter="url(#filter0_d_395_204)">
<path d="M9.41176 7H50V46.6923L4 50L9.41176 7Z" fill="#69B568"/>
</g>
<g filter="url(#filter1_d_395_204)">
<path d="M18 33.7995H22.401V31.599H24.6015V29.3985H26.8021V27.1979H29.0026V24.9974H31.2031V18.3959H29.0026V16.1954H24.6015V18.3959H22.401V22.7969H24.6015V20.5964H26.8021V24.9974H22.401V22.7969H20.2005V18.3959H22.3482V16.1954H24.5487V13.9949H33.4036V16.1954H35.6041V24.9974H33.4036V27.1979H31.2031V29.3985H29.0026V31.599H33.4036V29.3985H35.6041V27.1979H37.8046V24.9974H40.0051V27.2508H37.8046V29.4513H35.6041V33.7995H33.4036V36H18V33.7995Z" fill="#F6F6F6"/>
</g>
<defs>
<filter id="filter0_d_395_204" x="0" y="7" width="54" height="51" filterUnits="userSpaceOnUse" color-interpolation-filters="sRGB">
<feFlood flood-opacity="0" result="BackgroundImageFix"/>
<feColorMatrix in="SourceAlpha" type="matrix" values="0 0 0 0 0 0 0 0 0 0 0 0 0 0 0 0 0 0 127 0" result="hardAlpha"/>
<feOffset dy="4"/>
<feGaussianBlur stdDeviation="2"/>
<feComposite in2="hardAlpha" operator="out"/>
<feColorMatrix type="matrix" values="0 0 0 0 0 0 0 0 0 0 0 0 0 0 0 0 0 0 0.25 0"/>
<feBlend mode="normal" in2="BackgroundImageFix" result="effect1_dropShadow_395_204"/>
<feBlend mode="normal" in="SourceGraphic" in2="effect1_dropShadow_395_204" result="shape"/>
</filter>
<filter id="filter1_d_395_204" x="9.91444" y="13.9949" width="38.1763" height="38.1763" filterUnits="userSpaceOnUse" color-interpolation-filters="sRGB">
<feFlood flood-opacity="0" result="BackgroundImageFix"/>
<feColorMatrix in="SourceAlpha" type="matrix" values="0 0 0 0 0 0 0 0 0 0 0 0 0 0 0 0 0 0 127 0" result="hardAlpha"/>
<feOffset dy="8.08556"/>
<feGaussianBlur stdDeviation="4.04278"/>
<feComposite in2="hardAlpha" operator="out"/>
<feColorMatrix type="matrix" values="0 0 0 0 0 0 0 0 0 0 0 0 0 0 0 0 0 0 0.25 0"/>
<feBlend mode="normal" in2="BackgroundImageFix" result="effect1_dropShadow_395_204"/>
<feBlend mode="normal" in="SourceGraphic" in2="effect1_dropShadow_395_204" result="shape"/>
</filter>
</defs>
</svg>
