<svg width="140" height="78" viewBox="0 0 140 78" fill="none" xmlns="http://www.w3.org/2000/svg">
<g filter="url(#filter0_d_395_190)">
<path d="M11.4965 2.50278L135.689 3.80739e-05L135.104 62.1452L4.00001 63.0402L11.4965 2.50278Z" fill="#DB62A0"/>
</g>
<g filter="url(#filter1_d_395_190)">
<path d="M24.9894 37.9776L32.9894 34.4976L25.8694 27.9776L26.9494 24.4976L40.6694 21.4176L45.1894 25.6976L45.3494 27.9776L40.1494 30.0176L43.8294 36.7376L44.1494 40.4176L37.5094 43.8176L26.4294 43.3376L24.9894 37.9776ZM49.8069 38.1776L51.1669 30.0176L46.9269 30.2976L46.0869 20.3376L50.1669 20.7776L49.6069 17.2176H58.6069L57.6469 21.2176L63.2469 22.1376L62.4469 30.1776L57.9669 28.0576L58.0869 34.4576L59.7269 42.1776L59.7669 42.8976L51.2869 43.6576L50.0869 42.2576L49.8069 38.1776ZM64.0047 29.7376L66.7647 23.5376L76.1647 21.3376H84.2447L83.8447 27.4576L84.2447 35.4576L83.8447 42.9376H76.1647L75.9247 38.3776L69.3647 43.2176L66.8047 41.7376L63.6447 33.0976L64.0047 29.7376ZM86.8609 34.9776L87.2209 21.2976H94.1809L94.8209 23.0176L102.661 20.7776L104.661 25.8576L102.701 32.0176L102.221 33.0976L95.5409 32.6176L96.1409 42.8976H87.7009L86.8609 34.9776ZM109.444 38.1776L110.804 30.0176L106.564 30.2976L105.724 20.3376L109.804 20.7776L109.244 17.2176H118.244L117.284 21.2176L122.884 22.1376L122.084 30.1776L117.604 28.0576L117.724 34.4576L119.364 42.1776L119.404 42.8976L110.924 43.6576L109.724 42.2576L109.444 38.1776Z" fill="white"/>
</g>
<defs>
<filter id="filter0_d_395_190" x="0" y="0" width="139.689" height="77.0402" filterUnits="userSpaceOnUse" color-interpolation-filters="sRGB">
<feFlood flood-opacity="0" result="BackgroundImageFix"/>
<feColorMatrix in="SourceAlpha" type="matrix" values="0 0 0 0 0 0 0 0 0 0 0 0 0 0 0 0 0 0 127 0" result="hardAlpha"/>
<feOffset dy="10"/>
<feGaussianBlur stdDeviation="2"/>
<feComposite in2="hardAlpha" operator="out"/>
<feColorMatrix type="matrix" values="0 0 0 0 0 0 0 0 0 0 0 0 0 0 0 0 0 0 0.25 0"/>
<feBlend mode="normal" in2="BackgroundImageFix" result="effect1_dropShadow_395_190"/>
<feBlend mode="normal" in="SourceGraphic" in2="effect1_dropShadow_395_190" result="shape"/>
</filter>
<filter id="filter1_d_395_190" x="20.9893" y="17.2175" width="105.895" height="34.6001" filterUnits="userSpaceOnUse" color-interpolation-filters="sRGB">
<feFlood flood-opacity="0" result="BackgroundImageFix"/>
<feColorMatrix in="SourceAlpha" type="matrix" values="0 0 0 0 0 0 0 0 0 0 0 0 0 0 0 0 0 0 127 0" result="hardAlpha"/>
<feOffset dy="4"/>
<feGaussianBlur stdDeviation="2"/>
<feComposite in2="hardAlpha" operator="out"/>
<feColorMatrix type="matrix" values="0 0 0 0 0 0 0 0 0 0 0 0 0 0 0 0 0 0 0.25 0"/>
<feBlend mode="normal" in2="BackgroundImageFix" result="effect1_dropShadow_395_190"/>
<feBlend mode="normal" in="SourceGraphic" in2="effect1_dropShadow_395_190" result="shape"/>
</filter>
</defs>
</svg>
