<svg width="140" height="78" viewBox="0 0 140 78" fill="none" xmlns="http://www.w3.org/2000/svg">
<g filter="url(#filter0_d_525_18)">
<path d="M11.4965 2.50266L135.689 -8.39964e-05L135.104 62.1451L3.99998 63.04L11.4965 2.50266Z" fill="#DB62A0"/>
</g>
<g filter="url(#filter1_d_525_18)">
<path d="M28.0869 31.4577L28.6869 21.3777H37.2469L37.4869 22.4577L41.0469 20.6577L48.5669 24.4977L49.8869 31.2977L49.3669 34.7377L37.2469 42.4177V49.2577H28.6869L28.0869 31.4577ZM51.0335 34.9777L51.3935 21.2977H58.3535L58.9935 23.0177L66.8335 20.7777L68.8335 25.8577L66.8735 32.0177L66.3935 33.0977L59.7135 32.6177L60.3135 42.8977H51.8735L51.0335 34.9777ZM70.446 32.0577L71.126 21.6577H79.766L78.926 27.8577L78.966 31.9377L79.766 42.8977H71.286L70.446 32.0577ZM70.366 11.8177L79.406 12.1377L79.526 17.3777L71.646 18.4577L70.366 11.8177ZM82.0419 34.5777L82.4019 21.6977L89.2419 20.9777L90.8819 22.2977L91.6019 20.9777L101.562 23.1377L102.842 26.9377L101.762 42.8977L93.8019 41.4577L93.9619 34.4977L90.8019 35.6977L91.8019 43.2977H83.2819L82.0419 34.5777ZM107.347 38.1777L108.707 30.0177L104.467 30.2977L103.627 20.3377L107.707 20.7777L107.147 17.2177H116.147L115.187 21.2177L120.787 22.1377L119.987 30.1777L115.507 28.0577L115.627 34.4577L117.267 42.1777L117.307 42.8977L108.827 43.6577L107.627 42.2577L107.347 38.1777Z" fill="white"/>
</g>
<defs>
<filter id="filter0_d_525_18" x="0" y="0" width="139.689" height="77.04" filterUnits="userSpaceOnUse" color-interpolation-filters="sRGB">
<feFlood flood-opacity="0" result="BackgroundImageFix"/>
<feColorMatrix in="SourceAlpha" type="matrix" values="0 0 0 0 0 0 0 0 0 0 0 0 0 0 0 0 0 0 127 0" result="hardAlpha"/>
<feOffset dy="10"/>
<feGaussianBlur stdDeviation="2"/>
<feComposite in2="hardAlpha" operator="out"/>
<feColorMatrix type="matrix" values="0 0 0 0 0 0 0 0 0 0 0 0 0 0 0 0 0 0 0.25 0"/>
<feBlend mode="normal" in2="BackgroundImageFix" result="effect1_dropShadow_525_18"/>
<feBlend mode="normal" in="SourceGraphic" in2="effect1_dropShadow_525_18" result="shape"/>
</filter>
<filter id="filter1_d_525_18" x="24.087" y="11.8176" width="100.7" height="45.4402" filterUnits="userSpaceOnUse" color-interpolation-filters="sRGB">
<feFlood flood-opacity="0" result="BackgroundImageFix"/>
<feColorMatrix in="SourceAlpha" type="matrix" values="0 0 0 0 0 0 0 0 0 0 0 0 0 0 0 0 0 0 127 0" result="hardAlpha"/>
<feOffset dy="4"/>
<feGaussianBlur stdDeviation="2"/>
<feComposite in2="hardAlpha" operator="out"/>
<feColorMatrix type="matrix" values="0 0 0 0 0 0 0 0 0 0 0 0 0 0 0 0 0 0 0.25 0"/>
<feBlend mode="normal" in2="BackgroundImageFix" result="effect1_dropShadow_525_18"/>
<feBlend mode="normal" in="SourceGraphic" in2="effect1_dropShadow_525_18" result="shape"/>
</filter>
</defs>
</svg>
