<svg width="140" height="78" viewBox="0 0 140 78" fill="none" xmlns="http://www.w3.org/2000/svg">
<g filter="url(#filter0_d_524_14)">
<path d="M11.4965 2.50278L135.689 3.80739e-05L135.104 62.1452L3.99998 63.0402L11.4965 2.50278Z" fill="#F0CA57"/>
</g>
<g filter="url(#filter1_d_524_14)">
<path d="M33.2554 34.9776L33.6154 21.2976H40.5754L41.2154 23.0176L49.0554 20.7776L51.0554 25.8576L49.0954 32.0176L48.6154 33.0976L41.9354 32.6176L42.5354 42.8976H34.0954L33.2554 34.9776ZM50.8067 37.3376L51.7267 29.4576L57.4867 22.1776L65.2467 21.1376L69.5267 29.0976L65.3267 36.7376L69.5267 35.5376V39.1376L65.3267 42.8976L58.3667 44.2576L51.8867 40.4576L50.8067 37.3376ZM70.9379 35.0576L72.6979 25.2176L83.2179 21.7776V14.7776H91.3379L92.2579 25.5376L91.3379 36.3376L91.2979 42.9376H83.2179L83.6179 41.6176L80.5379 42.5376L71.4579 37.8576L70.9379 35.0576ZM93.3367 35.3776L95.4167 25.1776L99.4167 21.5376L104.337 20.3776L112.177 23.4576L114.937 33.9776L109.497 43.5776L96.9767 40.9776L93.3367 35.3776Z" fill="white"/>
</g>
<defs>
<filter id="filter0_d_524_14" x="0" y="0" width="139.689" height="77.0402" filterUnits="userSpaceOnUse" color-interpolation-filters="sRGB">
<feFlood flood-opacity="0" result="BackgroundImageFix"/>
<feColorMatrix in="SourceAlpha" type="matrix" values="0 0 0 0 0 0 0 0 0 0 0 0 0 0 0 0 0 0 127 0" result="hardAlpha"/>
<feOffset dy="10"/>
<feGaussianBlur stdDeviation="2"/>
<feComposite in2="hardAlpha" operator="out"/>
<feColorMatrix type="matrix" values="0 0 0 0 0 0 0 0 0 0 0 0 0 0 0 0 0 0 0.25 0"/>
<feBlend mode="normal" in2="BackgroundImageFix" result="effect1_dropShadow_524_14"/>
<feBlend mode="normal" in="SourceGraphic" in2="effect1_dropShadow_524_14" result="shape"/>
</filter>
<filter id="filter1_d_524_14" x="29.2554" y="14.7776" width="89.6812" height="37.48" filterUnits="userSpaceOnUse" color-interpolation-filters="sRGB">
<feFlood flood-opacity="0" result="BackgroundImageFix"/>
<feColorMatrix in="SourceAlpha" type="matrix" values="0 0 0 0 0 0 0 0 0 0 0 0 0 0 0 0 0 0 127 0" result="hardAlpha"/>
<feOffset dy="4"/>
<feGaussianBlur stdDeviation="2"/>
<feComposite in2="hardAlpha" operator="out"/>
<feColorMatrix type="matrix" values="0 0 0 0 0 0 0 0 0 0 0 0 0 0 0 0 0 0 0.25 0"/>
<feBlend mode="normal" in2="BackgroundImageFix" result="effect1_dropShadow_524_14"/>
<feBlend mode="normal" in="SourceGraphic" in2="effect1_dropShadow_524_14" result="shape"/>
</filter>
</defs>
</svg>
