<svg width="328" height="72" viewBox="0 0 328 72" fill="none" xmlns="http://www.w3.org/2000/svg">
<g filter="url(#filter0_d_395_245)">
<g filter="url(#filter1_d_395_245)">
<path d="M19.5387 12.2667L324 0L314.288 64H4L19.5387 12.2667Z" fill="#B23E80"/>
</g>
<g filter="url(#filter2_d_395_245)">
<path d="M26.5361 41.5655L33.7467 38.4288L27.3292 32.5522L28.3027 29.4155L40.6689 26.6394L44.7429 30.4971L44.8871 32.5522L40.2002 34.3909L43.5171 40.4478L43.8055 43.7647L37.8207 46.8292L27.834 46.3966L26.5361 41.5655ZM48.1477 41.7457L49.3735 34.3909L45.5519 34.6432L44.7947 25.666L48.4722 26.0626L47.9674 22.8538H56.0794L55.2141 26.4592L60.2616 27.2884L59.5405 34.5351L55.5026 32.6243L55.6107 38.3928L57.0889 45.351L57.1249 46L49.4817 46.685L48.4001 45.4231L48.1477 41.7457ZM60.1875 34.1385L62.6752 28.5502L71.1477 26.5673H78.4304L78.0699 32.0835L78.4304 39.2941L78.0699 46.0361H71.1477L70.9314 41.926L65.0186 46.2884L62.7112 44.9545L59.863 37.167L60.1875 34.1385ZM80.0314 38.8615L80.3559 26.5313H86.6291L87.206 28.0816L94.2724 26.0626L96.0751 30.6413L94.3085 36.1935L93.8758 37.167L87.8549 36.7343L88.3957 46H80.7885L80.0314 38.8615ZM99.6294 41.7457L100.855 34.3909L97.0336 34.6432L96.2765 25.666L99.9539 26.0626L99.4491 22.8538H107.561L106.696 26.4592L111.743 27.2884L111.022 34.5351L106.984 32.6243L107.092 38.3928L108.571 45.351L108.607 46L100.963 46.685L99.8818 45.4231L99.6294 41.7457ZM120.638 34.1385L123.126 28.5502L131.598 26.5673H138.881L138.52 32.0835L138.881 39.2941L138.52 46.0361H131.598L131.382 41.926L125.469 46.2884L123.162 44.9545L120.314 37.167L120.638 34.1385ZM149.955 38.5009L150.28 26.8918L156.445 26.2428L157.923 27.4326L158.572 26.2428L167.549 28.1897L168.703 31.6148L167.73 46L160.555 44.7021L160.699 38.4288L157.851 39.5104L158.752 46.3605H151.073L149.955 38.5009ZM169.266 40.9886L170.095 33.8861L175.287 27.3244L182.281 26.3871L186.139 33.5616L182.353 40.4478L186.139 39.3662V42.611L182.353 46L176.08 47.2258L170.24 43.8008L169.266 40.9886ZM187.313 41.5294L186.628 33.4174L187.998 26.2789H196.615L194.992 31.8311L194.451 38.6812L197.372 29.8121L201.806 30.4971L203.789 40.8804L203.681 29.6318L202.599 26.2789H211.288L211.937 28.6945L212.262 37.888L210.892 42.5028L202.419 46.5047L198.309 44.9184L190.99 46.9374L187.313 41.5294ZM220.668 41.5655L227.879 38.4288L221.461 32.5522L222.435 29.4155L234.801 26.6394L238.875 30.4971L239.019 32.5522L234.332 34.3909L237.649 40.4478L237.938 43.7647L231.953 46.8292L221.966 46.3966L220.668 41.5655ZM242.28 41.7457L243.506 34.3909L239.684 34.6432L238.927 25.666L242.604 26.0626L242.1 22.8538H250.212L249.346 26.4592L254.394 27.2884L253.673 34.5351L249.635 32.6243L249.743 38.3928L251.221 45.351L251.257 46L243.614 46.685L242.532 45.4231L242.28 41.7457ZM253.976 39.222L255.851 30.0284L259.456 26.7476L263.891 25.702L270.957 28.4781L273.445 37.9601L268.541 46.6129L257.257 44.2694L253.976 39.222ZM274.093 38.8615L274.418 26.5313H280.691L281.268 28.0816L288.334 26.0626L290.137 30.6413L288.37 36.1935L287.938 37.167L281.917 36.7343L282.457 46H274.85L274.093 38.8615ZM290.32 47.2979L299.153 41.7457L292.447 41.2049L290.356 31.2542L290.897 26.2428L297.891 25.3776L297.783 34.4269L300.307 35.4004L300.235 26.2428H307.95L308.671 38.1765L307.661 45.351L306.111 48.3074L294.863 53.0664L290.32 47.2979Z" fill="#FFFEE3"/>
</g>
</g>
<defs>
<filter id="filter0_d_395_245" x="0" y="0" width="328" height="72" filterUnits="userSpaceOnUse" color-interpolation-filters="sRGB">
<feFlood flood-opacity="0" result="BackgroundImageFix"/>
<feColorMatrix in="SourceAlpha" type="matrix" values="0 0 0 0 0 0 0 0 0 0 0 0 0 0 0 0 0 0 127 0" result="hardAlpha"/>
<feOffset dy="4"/>
<feGaussianBlur stdDeviation="2"/>
<feComposite in2="hardAlpha" operator="out"/>
<feColorMatrix type="matrix" values="0 0 0 0 0 0 0 0 0 0 0 0 0 0 0 0 0 0 0.25 0"/>
<feBlend mode="normal" in2="BackgroundImageFix" result="effect1_dropShadow_395_245"/>
<feBlend mode="normal" in="SourceGraphic" in2="effect1_dropShadow_395_245" result="shape"/>
</filter>
<filter id="filter1_d_395_245" x="0" y="0" width="328" height="72" filterUnits="userSpaceOnUse" color-interpolation-filters="sRGB">
<feFlood flood-opacity="0" result="BackgroundImageFix"/>
<feColorMatrix in="SourceAlpha" type="matrix" values="0 0 0 0 0 0 0 0 0 0 0 0 0 0 0 0 0 0 127 0" result="hardAlpha"/>
<feOffset dy="4"/>
<feGaussianBlur stdDeviation="2"/>
<feComposite in2="hardAlpha" operator="out"/>
<feColorMatrix type="matrix" values="0 0 0 0 0 0 0 0 0 0 0 0 0 0 0 0 0 0 0.25 0"/>
<feBlend mode="normal" in2="BackgroundImageFix" result="effect1_dropShadow_395_245"/>
<feBlend mode="normal" in="SourceGraphic" in2="effect1_dropShadow_395_245" result="shape"/>
</filter>
<filter id="filter2_d_395_245" x="18.4505" y="22.854" width="298.306" height="46.3835" filterUnits="userSpaceOnUse" color-interpolation-filters="sRGB">
<feFlood flood-opacity="0" result="BackgroundImageFix"/>
<feColorMatrix in="SourceAlpha" type="matrix" values="0 0 0 0 0 0 0 0 0 0 0 0 0 0 0 0 0 0 127 0" result="hardAlpha"/>
<feOffset dy="8.08556"/>
<feGaussianBlur stdDeviation="4.04278"/>
<feComposite in2="hardAlpha" operator="out"/>
<feColorMatrix type="matrix" values="0 0 0 0 0 0 0 0 0 0 0 0 0 0 0 0 0 0 0.25 0"/>
<feBlend mode="normal" in2="BackgroundImageFix" result="effect1_dropShadow_395_245"/>
<feBlend mode="normal" in="SourceGraphic" in2="effect1_dropShadow_395_245" result="shape"/>
</filter>
</defs>
</svg>
