<svg width="300" height="82" viewBox="0 0 300 82" fill="none" xmlns="http://www.w3.org/2000/svg">
<g filter="url(#filter0_d_389_86)">
<path d="M18.0089 10.1435L285.196 5.58462L295.896 54.8478L5.37853 68L18.0089 10.1435Z" fill="#F0CA57"/>
</g>
<g filter="url(#filter1_d_389_86)">
<path d="M26.8488 45.4C25.1688 45.4 24.7288 44.28 24.7288 42.16C24.7288 40.52 25.1688 39.08 25.1688 36.32C25.1688 33.52 24.3688 30.88 23.3688 28.96C23.0088 28.28 22.6888 27.64 22.6888 27.2C22.6888 26.32 24.4488 25.88 26.0888 25.88C28.4488 25.88 30.0888 26.76 30.0888 29.28C30.0888 29.72 29.7688 33.48 29.7688 35.28C29.7688 37.76 30.2488 39.2 31.3288 39.2C32.7688 39.2 34.6888 36.44 34.6888 33.56C34.6888 31.52 33.8888 29.84 33.1688 28.4C32.9288 27.92 32.8088 27.68 32.8088 27.36C32.8088 26.28 34.4888 25.84 35.8088 25.84C38.5688 25.84 39.9688 26.92 39.9688 29.08C39.9688 30.08 39.3688 33.8 39.3688 35.76C39.3688 38.2 39.8088 39.2 40.6888 39.2C42.2488 39.2 44.3688 36.6 44.3688 34.08C44.3688 31.68 42.5688 30.4 42.5688 28.84C42.5688 26.96 44.2088 25.84 45.8888 25.84C47.5688 25.84 49.1288 26.96 49.1288 29.28C49.1288 33.84 42.1688 45.4 37.7288 45.4C35.6888 45.4 35.3288 43.52 35.0888 42.16C34.9288 41.28 34.6888 40.88 34.0488 40.88C32.8088 40.88 30.0888 45.4 26.8488 45.4ZM50.9107 45.4C49.4707 45.4 48.5107 44.68 48.5107 42.48C48.5107 39.24 51.5107 35.48 52.8707 31.4C54.1507 27.6 54.9107 21.48 53.7107 18.48C53.1507 17.08 52.6307 16.48 52.6307 15.92C52.6307 14.76 55.1507 13.8 57.2707 13.8C59.5107 13.8 60.5107 15 60.5107 16.52C60.5107 19.44 57.7107 23.36 57.7107 26.64C57.7107 27.68 58.0707 28.12 59.0307 28.12C61.2307 28.12 62.3107 25.8 65.4707 25.8C67.3907 25.8 68.5907 26.96 68.5907 28.6C68.5907 31.32 66.7507 32.64 66.7507 35.2C66.7507 38.8 68.7907 39.16 68.7907 40.12C68.7907 42.08 64.3907 45.4 61.9907 45.4C60.2707 45.4 59.4307 44.44 59.4307 42.84C59.4307 40.04 62.9107 37.68 62.9107 33.32C62.9107 31.4 61.8307 30.32 60.0707 30.32C57.5507 30.32 55.5107 32.68 55.5107 35.48C55.5107 38.6 57.7507 39.16 57.7507 40.12C57.7507 42.08 53.3107 45.4 50.9107 45.4ZM75.3319 45.4C72.6119 45.4 70.4519 43.36 70.4519 39.4C70.4519 33.24 75.7719 25.8 83.0519 25.8C86.1319 25.8 88.4919 27.12 88.4919 29.4C88.4919 30.2 88.2119 31.16 87.8919 32.12C87.1719 34.44 86.4119 36.96 87.2919 38.44C87.5319 38.84 87.9319 39.24 88.6119 39.56C89.2119 39.84 89.5319 40.12 89.5319 40.56C89.5319 42.04 86.7319 45.4 84.0519 45.4C81.2919 45.4 82.5319 42.6 81.2119 42.6C79.8519 42.6 78.5319 45.4 75.3319 45.4ZM78.0519 41.28C81.1719 41.28 83.4519 35.04 83.4519 31.16C83.4519 29.56 82.9719 28.4 81.5719 28.4C78.4919 28.4 76.2919 34.28 76.2919 38.4C76.2919 39.96 76.6119 41.28 78.0519 41.28ZM94.9785 45.4C92.8585 45.4 91.0185 44.2 91.0185 41.84C91.0185 39.36 94.1785 36.12 94.1785 31.48C94.1785 28.88 92.8585 28.28 92.8585 27.08C92.8585 25.36 94.6585 22.92 96.7385 22.92C98.7385 22.92 97.9785 26.2 102.058 26.2C102.858 26.2 103.338 26.64 103.338 27.28C103.338 28.08 102.738 28.32 101.818 28.56C99.0585 29.28 96.9785 32.8 96.9785 37.28C96.9785 40.08 98.0985 40.88 98.8585 40.88C99.8985 40.88 100.698 40.16 101.618 40.16C102.098 40.16 102.458 40.56 102.458 41.08C102.458 42.88 98.3385 45.4 94.9785 45.4ZM105.615 24.56C104.895 24.56 104.535 24.12 104.535 23.68C104.535 22.64 106.535 21.88 106.535 20.4C106.535 19.48 105.895 18.64 105.895 17.6C105.895 15.72 107.255 14.44 108.895 14.44C110.615 14.44 112.055 15.56 112.055 17.52C112.055 20.12 108.135 24.56 105.615 24.56ZM112.916 45.4C109.636 45.4 106.636 43.92 106.636 41.72C106.636 40.44 107.676 39.2 109.236 39.2C111.916 39.2 111.716 43 114.276 43C115.396 43 116.076 42.28 116.076 41.36C116.076 38.44 108.996 36.88 108.996 31.76C108.996 28.12 112.476 25.8 116.836 25.8C119.516 25.8 122.476 26.64 122.476 28.88C122.476 30.2 121.436 31.16 120.036 31.16C117.596 31.16 117.956 28.24 115.516 28.24C114.276 28.24 113.636 28.92 113.636 29.8C113.636 32.64 121.076 33.88 121.076 39.04C121.076 42.64 117.436 45.4 112.916 45.4ZM128.463 54.2C126.183 54.2 124.063 53 124.063 50.68C124.063 49.2 125.183 47.8 127.063 47.8C129.623 47.8 129.823 50.12 131.503 50.12C133.983 50.12 134.823 46.52 134.823 42.68C134.823 38 133.103 31.24 132.063 28.76C131.823 28.16 131.583 27.56 131.583 27.16C131.583 26.36 132.943 25.88 135.143 25.88C137.223 25.88 138.983 26.72 138.983 29.32C138.983 31.64 138.623 34.92 138.623 37.32C138.623 39.4 139.023 40.68 140.223 40.68C142.423 40.68 143.543 37.32 143.543 34.4C143.543 31.6 142.103 30.4 142.103 28.68C142.103 27 143.583 25.8 145.343 25.8C147.063 25.8 148.663 26.92 148.663 29.28C148.663 37.04 140.503 47.72 133.743 52.32C131.983 53.48 130.263 54.2 128.463 54.2ZM156.576 45.4C153.456 45.4 149.496 44.28 149.496 38.72C149.496 33.16 153.856 25.8 161.256 25.8C164.176 25.8 168.176 26.88 168.176 32.32C168.176 37.16 164.856 45.4 156.576 45.4ZM157.496 42.6C160.416 42.6 162.056 35.8 162.056 32.04C162.056 30.04 161.616 28.6 160.216 28.6C157.296 28.6 155.656 35.04 155.656 38.96C155.656 40.8 155.976 42.6 157.496 42.6ZM172.948 45.4C170.948 45.4 169.708 44.16 169.708 42.48C169.708 39.68 172.508 37.08 172.508 32.2C172.508 29.92 170.948 28.68 170.948 27.92C170.948 26.76 173.348 25.8 175.708 25.8C177.708 25.8 178.748 26.64 178.748 27.88C178.748 29.76 175.788 34.16 175.788 38.28C175.788 40.24 176.668 40.96 177.748 40.96C180.588 40.96 182.828 36.4 182.828 32.6C182.828 29.56 181.668 28.68 181.668 27.92C181.668 26.76 184.308 25.8 186.108 25.8C188.108 25.8 189.148 26.64 189.148 27.88C189.148 29.84 186.388 33.16 186.388 36.8C186.388 38 186.708 38.96 187.588 39.56C188.108 39.88 188.468 40.12 188.468 40.56C188.468 42.04 185.668 45.4 182.988 45.4C180.228 45.4 181.468 42.6 180.148 42.6C178.548 42.6 176.028 45.4 172.948 45.4ZM192.651 45.4C191.171 45.4 190.091 44.4 190.091 42.96C190.091 39.56 193.891 38.48 193.891 34.16C193.891 30.36 192.331 29.52 192.331 27.96C192.331 26.96 194.971 25.8 196.491 25.8C198.691 25.8 198.051 28.72 199.011 28.72C199.931 28.72 200.611 26.08 203.291 26.08C205.011 26.08 206.331 27.24 206.331 28.92C206.331 30.6 205.051 32.04 203.371 32.04C201.891 32.04 201.651 31 200.331 31C198.331 31 197.611 33.6 197.611 35.88C197.611 38.84 199.491 39.24 199.491 40.36C199.491 42.48 194.971 45.4 192.651 45.4ZM211.097 45.4C207.817 45.4 204.817 43.92 204.817 41.72C204.817 40.44 205.857 39.2 207.417 39.2C210.097 39.2 209.897 43 212.457 43C213.577 43 214.257 42.28 214.257 41.36C214.257 38.44 207.177 36.88 207.177 31.76C207.177 28.12 210.657 25.8 215.017 25.8C217.697 25.8 220.657 26.64 220.657 28.88C220.657 30.2 219.617 31.16 218.217 31.16C215.777 31.16 216.137 28.24 213.697 28.24C212.457 28.24 211.817 28.92 211.817 29.8C211.817 32.64 219.257 33.88 219.257 39.04C219.257 42.64 215.617 45.4 211.097 45.4ZM226.712 36.68C226.112 36.68 225.552 36.28 225.792 35.16C226.392 32.24 228.952 29 231.512 26.68C233.392 25 235.472 23.76 235.472 21.64C235.472 19.96 234.232 18.8 232.072 18.8C230.032 18.8 228.312 19.8 227.112 20.68C225.952 21.52 225.032 22.12 224.512 22.12C224.112 22.12 223.672 21.76 223.672 21.2C223.672 19.8 226.072 17.44 227.672 16.44C229.432 15.36 231.472 14.6 234.352 14.6C238.952 14.6 241.672 17.24 241.672 20.28C241.672 23.36 239.912 25.56 236.592 27.72L233.592 29.68C230.872 31.44 229.472 32.68 228.352 35C227.872 35.92 227.512 36.68 226.712 36.68ZM225.592 45.4C223.632 45.4 222.272 43.88 222.272 42.16C222.272 40.28 223.632 38.8 225.592 38.8C227.512 38.8 228.872 40.28 228.872 42.16C228.872 43.88 227.512 45.4 225.592 45.4Z" fill="white"/>
</g>
<g filter="url(#filter2_d_389_86)">
<path d="M284.725 35L269.725 26.3397L269.725 43.6603L284.725 35ZM243.725 35L243.725 36.5L271.225 36.5L271.225 35L271.225 33.5L243.725 33.5L243.725 35Z" fill="white"/>
</g>
<defs>
<filter id="filter0_d_389_86" x="1.37854" y="5.58472" width="298.518" height="76.4153" filterUnits="userSpaceOnUse" color-interpolation-filters="sRGB">
<feFlood flood-opacity="0" result="BackgroundImageFix"/>
<feColorMatrix in="SourceAlpha" type="matrix" values="0 0 0 0 0 0 0 0 0 0 0 0 0 0 0 0 0 0 127 0" result="hardAlpha"/>
<feOffset dy="10"/>
<feGaussianBlur stdDeviation="2"/>
<feComposite in2="hardAlpha" operator="out"/>
<feColorMatrix type="matrix" values="0 0 0 0 0 0 0 0 0 0 0 0 0 0 0 0 0 0 0.25 0"/>
<feBlend mode="normal" in2="BackgroundImageFix" result="effect1_dropShadow_389_86"/>
<feBlend mode="normal" in="SourceGraphic" in2="effect1_dropShadow_389_86" result="shape"/>
</filter>
<filter id="filter1_d_389_86" x="18.6888" y="13.8" width="226.983" height="48.3999" filterUnits="userSpaceOnUse" color-interpolation-filters="sRGB">
<feFlood flood-opacity="0" result="BackgroundImageFix"/>
<feColorMatrix in="SourceAlpha" type="matrix" values="0 0 0 0 0 0 0 0 0 0 0 0 0 0 0 0 0 0 127 0" result="hardAlpha"/>
<feOffset dy="4"/>
<feGaussianBlur stdDeviation="2"/>
<feComposite in2="hardAlpha" operator="out"/>
<feColorMatrix type="matrix" values="0 0 0 0 0 0 0 0 0 0 0 0 0 0 0 0 0 0 0.5 0"/>
<feBlend mode="normal" in2="BackgroundImageFix" result="effect1_dropShadow_389_86"/>
<feBlend mode="normal" in="SourceGraphic" in2="effect1_dropShadow_389_86" result="shape"/>
</filter>
<filter id="filter2_d_389_86" x="239.725" y="26.3398" width="49" height="25.3203" filterUnits="userSpaceOnUse" color-interpolation-filters="sRGB">
<feFlood flood-opacity="0" result="BackgroundImageFix"/>
<feColorMatrix in="SourceAlpha" type="matrix" values="0 0 0 0 0 0 0 0 0 0 0 0 0 0 0 0 0 0 127 0" result="hardAlpha"/>
<feOffset dy="4"/>
<feGaussianBlur stdDeviation="2"/>
<feComposite in2="hardAlpha" operator="out"/>
<feColorMatrix type="matrix" values="0 0 0 0 0 0 0 0 0 0 0 0 0 0 0 0 0 0 0.5 0"/>
<feBlend mode="normal" in2="BackgroundImageFix" result="effect1_dropShadow_389_86"/>
<feBlend mode="normal" in="SourceGraphic" in2="effect1_dropShadow_389_86" result="shape"/>
</filter>
</defs>
</svg>
